<mxfile host="Electron" modified="2023-08-31T00:04:43.288Z" agent="Mozilla/5.0 (Windows NT 10.0; Win64; x64) AppleWebKit/537.36 (KHTML, like Gecko) draw.io/21.6.1 Chrome/112.0.5615.204 Electron/24.6.1 Safari/537.36" etag="359wDIfczrjZGHetn_gS" version="21.6.1" type="device" pages="2">
  <diagram name="Page-1" id="7JiO7ZLeyuwxyVsuTCss">
    <mxGraphModel dx="1036" dy="606" grid="1" gridSize="10" guides="1" tooltips="1" connect="1" arrows="1" fold="1" page="1" pageScale="1" pageWidth="850" pageHeight="1100" math="0" shadow="0">
      <root>
        <mxCell id="0" />
        <mxCell id="1" parent="0" />
        <mxCell id="YmqzNokB0VcEJ7OevSCW-1" value="" style="ellipse;html=1;shape=startState;fillColor=#000000;strokeColor=#ff0000;" parent="1" vertex="1">
          <mxGeometry x="415" y="100" width="30" height="30" as="geometry" />
        </mxCell>
        <mxCell id="YmqzNokB0VcEJ7OevSCW-2" value="" style="edgeStyle=orthogonalEdgeStyle;html=1;verticalAlign=bottom;endArrow=open;endSize=8;strokeColor=#ff0000;rounded=0;" parent="1" source="YmqzNokB0VcEJ7OevSCW-1" edge="1">
          <mxGeometry relative="1" as="geometry">
            <mxPoint x="430" y="190" as="targetPoint" />
          </mxGeometry>
        </mxCell>
        <mxCell id="YmqzNokB0VcEJ7OevSCW-3" style="edgeStyle=orthogonalEdgeStyle;rounded=0;orthogonalLoop=1;jettySize=auto;html=1;exitX=0.5;exitY=1;exitDx=0;exitDy=0;entryX=0.5;entryY=0;entryDx=0;entryDy=0;" parent="1" source="YmqzNokB0VcEJ7OevSCW-4" target="YmqzNokB0VcEJ7OevSCW-7" edge="1">
          <mxGeometry relative="1" as="geometry" />
        </mxCell>
        <mxCell id="YmqzNokB0VcEJ7OevSCW-4" value="Input&amp;nbsp;UserName&lt;br&gt;Password" style="rounded=1;whiteSpace=wrap;html=1;arcSize=40;fontColor=#000000;fillColor=#ffffc0;strokeColor=#ff0000;" parent="1" vertex="1">
          <mxGeometry x="370" y="190" width="120" height="40" as="geometry" />
        </mxCell>
        <mxCell id="YmqzNokB0VcEJ7OevSCW-5" style="edgeStyle=orthogonalEdgeStyle;rounded=0;orthogonalLoop=1;jettySize=auto;html=1;exitX=0;exitY=0.5;exitDx=0;exitDy=0;entryX=1;entryY=0.5;entryDx=0;entryDy=0;" parent="1" source="YmqzNokB0VcEJ7OevSCW-7" target="YmqzNokB0VcEJ7OevSCW-9" edge="1">
          <mxGeometry relative="1" as="geometry" />
        </mxCell>
        <mxCell id="YmqzNokB0VcEJ7OevSCW-6" style="edgeStyle=orthogonalEdgeStyle;rounded=0;orthogonalLoop=1;jettySize=auto;html=1;exitX=0.5;exitY=1;exitDx=0;exitDy=0;entryX=0.5;entryY=0;entryDx=0;entryDy=0;" parent="1" source="YmqzNokB0VcEJ7OevSCW-7" target="YmqzNokB0VcEJ7OevSCW-13" edge="1">
          <mxGeometry relative="1" as="geometry" />
        </mxCell>
        <mxCell id="YmqzNokB0VcEJ7OevSCW-7" value="" style="rhombus;whiteSpace=wrap;html=1;fontColor=#000000;fillColor=#ffffc0;strokeColor=#ff0000;" parent="1" vertex="1">
          <mxGeometry x="390" y="290" width="80" height="40" as="geometry" />
        </mxCell>
        <mxCell id="YmqzNokB0VcEJ7OevSCW-8" style="edgeStyle=orthogonalEdgeStyle;rounded=0;orthogonalLoop=1;jettySize=auto;html=1;exitX=0.5;exitY=0;exitDx=0;exitDy=0;entryX=0;entryY=0.5;entryDx=0;entryDy=0;" parent="1" source="YmqzNokB0VcEJ7OevSCW-9" target="YmqzNokB0VcEJ7OevSCW-4" edge="1">
          <mxGeometry relative="1" as="geometry" />
        </mxCell>
        <mxCell id="YmqzNokB0VcEJ7OevSCW-9" value="Input again" style="rounded=1;whiteSpace=wrap;html=1;arcSize=40;fontColor=#000000;fillColor=#ffffc0;strokeColor=#ff0000;" parent="1" vertex="1">
          <mxGeometry x="90" y="290" width="120" height="40" as="geometry" />
        </mxCell>
        <mxCell id="YmqzNokB0VcEJ7OevSCW-10" value="[Invalid&amp;nbsp;UserName&lt;br&gt;Password]" style="text;align=center;fontStyle=1;verticalAlign=middle;spacingLeft=3;spacingRight=3;strokeColor=none;rotatable=0;points=[[0,0.5],[1,0.5]];portConstraint=eastwest;html=1;" parent="1" vertex="1">
          <mxGeometry x="260" y="280" width="80" height="26" as="geometry" />
        </mxCell>
        <mxCell id="YmqzNokB0VcEJ7OevSCW-11" style="edgeStyle=orthogonalEdgeStyle;rounded=0;orthogonalLoop=1;jettySize=auto;html=1;exitX=1;exitY=0.5;exitDx=0;exitDy=0;entryX=0;entryY=0.5;entryDx=0;entryDy=0;" parent="1" source="YmqzNokB0VcEJ7OevSCW-13" target="YmqzNokB0VcEJ7OevSCW-16" edge="1">
          <mxGeometry relative="1" as="geometry" />
        </mxCell>
        <mxCell id="YmqzNokB0VcEJ7OevSCW-12" style="edgeStyle=orthogonalEdgeStyle;rounded=0;orthogonalLoop=1;jettySize=auto;html=1;exitX=0.5;exitY=1;exitDx=0;exitDy=0;entryX=0.5;entryY=0;entryDx=0;entryDy=0;" parent="1" source="YmqzNokB0VcEJ7OevSCW-13" target="YmqzNokB0VcEJ7OevSCW-19" edge="1">
          <mxGeometry relative="1" as="geometry" />
        </mxCell>
        <mxCell id="YmqzNokB0VcEJ7OevSCW-13" value="" style="rhombus;whiteSpace=wrap;html=1;fontColor=#000000;fillColor=#ffffc0;strokeColor=#ff0000;" parent="1" vertex="1">
          <mxGeometry x="390" y="390" width="80" height="40" as="geometry" />
        </mxCell>
        <mxCell id="YmqzNokB0VcEJ7OevSCW-14" value="[Valid&amp;nbsp;UserName/Password]" style="text;align=center;fontStyle=1;verticalAlign=middle;spacingLeft=3;spacingRight=3;strokeColor=none;rotatable=0;points=[[0,0.5],[1,0.5]];portConstraint=eastwest;html=1;" parent="1" vertex="1">
          <mxGeometry x="480" y="340" width="80" height="26" as="geometry" />
        </mxCell>
        <mxCell id="YmqzNokB0VcEJ7OevSCW-15" style="edgeStyle=orthogonalEdgeStyle;rounded=0;orthogonalLoop=1;jettySize=auto;html=1;exitX=0.5;exitY=0;exitDx=0;exitDy=0;entryX=1;entryY=0.5;entryDx=0;entryDy=0;" parent="1" source="YmqzNokB0VcEJ7OevSCW-16" target="YmqzNokB0VcEJ7OevSCW-4" edge="1">
          <mxGeometry relative="1" as="geometry" />
        </mxCell>
        <mxCell id="YmqzNokB0VcEJ7OevSCW-16" value="Show message&lt;br&gt;&quot;Invalid&amp;nbsp;Username/Password&quot;" style="rounded=1;whiteSpace=wrap;html=1;arcSize=40;fontColor=#000000;fillColor=#ffffc0;strokeColor=#ff0000;" parent="1" vertex="1">
          <mxGeometry x="620" y="380" width="160" height="60" as="geometry" />
        </mxCell>
        <mxCell id="YmqzNokB0VcEJ7OevSCW-17" value="[not exists&amp;nbsp;user in db]" style="text;align=center;fontStyle=1;verticalAlign=middle;spacingLeft=3;spacingRight=3;strokeColor=none;rotatable=0;points=[[0,0.5],[1,0.5]];portConstraint=eastwest;html=1;" parent="1" vertex="1">
          <mxGeometry x="500" y="390" width="80" height="26" as="geometry" />
        </mxCell>
        <mxCell id="YmqzNokB0VcEJ7OevSCW-18" style="edgeStyle=orthogonalEdgeStyle;rounded=0;orthogonalLoop=1;jettySize=auto;html=1;exitX=0.5;exitY=1;exitDx=0;exitDy=0;entryX=0.5;entryY=0;entryDx=0;entryDy=0;" parent="1" source="YmqzNokB0VcEJ7OevSCW-19" target="YmqzNokB0VcEJ7OevSCW-21" edge="1">
          <mxGeometry relative="1" as="geometry" />
        </mxCell>
        <mxCell id="YmqzNokB0VcEJ7OevSCW-19" value="show&amp;nbsp;order magement" style="rounded=1;whiteSpace=wrap;html=1;arcSize=40;fontColor=#000000;fillColor=#ffffc0;strokeColor=#ff0000;" parent="1" vertex="1">
          <mxGeometry x="370" y="540" width="120" height="40" as="geometry" />
        </mxCell>
        <mxCell id="YmqzNokB0VcEJ7OevSCW-20" value="exists&amp;nbsp;user in db" style="text;align=center;fontStyle=1;verticalAlign=middle;spacingLeft=3;spacingRight=3;strokeColor=none;rotatable=0;points=[[0,0.5],[1,0.5]];portConstraint=eastwest;html=1;" parent="1" vertex="1">
          <mxGeometry x="440" y="440" width="80" height="26" as="geometry" />
        </mxCell>
        <mxCell id="YmqzNokB0VcEJ7OevSCW-21" value="" style="ellipse;html=1;shape=endState;fillColor=#000000;strokeColor=#ff0000;" parent="1" vertex="1">
          <mxGeometry x="415" y="640" width="30" height="30" as="geometry" />
        </mxCell>
      </root>
    </mxGraphModel>
  </diagram>
  <diagram id="8cfywm9duBInB0SETeg7" name="Page-2">
    <mxGraphModel dx="1036" dy="606" grid="1" gridSize="10" guides="1" tooltips="1" connect="1" arrows="1" fold="1" page="1" pageScale="1" pageWidth="850" pageHeight="1100" math="0" shadow="0">
      <root>
        <mxCell id="0" />
        <mxCell id="1" parent="0" />
        <mxCell id="lmVjnB-UKOoOZH7RbxXl-1" value="001-Login" style="shape=umlFrame;whiteSpace=wrap;html=1;pointerEvents=0;width=80;height=40;" parent="1" vertex="1">
          <mxGeometry x="40" y="40" width="850" height="800" as="geometry" />
        </mxCell>
        <mxCell id="lmVjnB-UKOoOZH7RbxXl-13" style="edgeStyle=orthogonalEdgeStyle;rounded=0;orthogonalLoop=1;jettySize=auto;html=1;exitX=0.5;exitY=0.5;exitDx=0;exitDy=0;exitPerimeter=0;entryX=0.507;entryY=0.567;entryDx=0;entryDy=0;entryPerimeter=0;endArrow=none;endFill=0;dashed=1;" parent="1" source="lmVjnB-UKOoOZH7RbxXl-2" target="lmVjnB-UKOoOZH7RbxXl-10" edge="1">
          <mxGeometry relative="1" as="geometry">
            <Array as="points">
              <mxPoint x="135" y="240" />
              <mxPoint x="135" y="240" />
            </Array>
          </mxGeometry>
        </mxCell>
        <mxCell id="lmVjnB-UKOoOZH7RbxXl-2" value="Staff" style="shape=umlActor;verticalLabelPosition=bottom;verticalAlign=top;html=1;" parent="1" vertex="1">
          <mxGeometry x="120" y="90" width="30" height="60" as="geometry" />
        </mxCell>
        <mxCell id="lmVjnB-UKOoOZH7RbxXl-29" style="edgeStyle=orthogonalEdgeStyle;rounded=0;orthogonalLoop=1;jettySize=auto;html=1;entryX=0.5;entryY=0;entryDx=0;entryDy=0;entryPerimeter=0;endArrow=none;endFill=0;dashed=1;" parent="1" source="lmVjnB-UKOoOZH7RbxXl-3" target="lmVjnB-UKOoOZH7RbxXl-14" edge="1">
          <mxGeometry relative="1" as="geometry" />
        </mxCell>
        <mxCell id="lmVjnB-UKOoOZH7RbxXl-3" value="Program" style="html=1;whiteSpace=wrap;" parent="1" vertex="1">
          <mxGeometry x="240" y="100" width="90" height="30" as="geometry" />
        </mxCell>
        <mxCell id="lmVjnB-UKOoOZH7RbxXl-28" style="edgeStyle=orthogonalEdgeStyle;rounded=0;orthogonalLoop=1;jettySize=auto;html=1;entryX=0.5;entryY=0;entryDx=0;entryDy=0;entryPerimeter=0;endArrow=none;endFill=0;dashed=1;" parent="1" source="lmVjnB-UKOoOZH7RbxXl-4" target="lmVjnB-UKOoOZH7RbxXl-16" edge="1">
          <mxGeometry relative="1" as="geometry" />
        </mxCell>
        <mxCell id="lmVjnB-UKOoOZH7RbxXl-4" value="Utility" style="html=1;whiteSpace=wrap;" parent="1" vertex="1">
          <mxGeometry x="360" y="100" width="90" height="30" as="geometry" />
        </mxCell>
        <mxCell id="XymlHXUqKiggVk3lF_fa-5" style="edgeStyle=orthogonalEdgeStyle;rounded=0;orthogonalLoop=1;jettySize=auto;html=1;exitX=0.5;exitY=1;exitDx=0;exitDy=0;entryX=0.4;entryY=0.005;entryDx=0;entryDy=0;entryPerimeter=0;endArrow=none;endFill=0;dashed=1;" edge="1" parent="1" source="lmVjnB-UKOoOZH7RbxXl-6" target="XymlHXUqKiggVk3lF_fa-4">
          <mxGeometry relative="1" as="geometry" />
        </mxCell>
        <mxCell id="lmVjnB-UKOoOZH7RbxXl-6" value="StaffBL" style="html=1;whiteSpace=wrap;" parent="1" vertex="1">
          <mxGeometry x="520" y="105" width="90" height="30" as="geometry" />
        </mxCell>
        <mxCell id="XymlHXUqKiggVk3lF_fa-9" style="edgeStyle=orthogonalEdgeStyle;rounded=0;orthogonalLoop=1;jettySize=auto;html=1;entryX=0.5;entryY=0;entryDx=0;entryDy=0;entryPerimeter=0;endArrow=none;endFill=0;dashed=1;" edge="1" parent="1" source="lmVjnB-UKOoOZH7RbxXl-7" target="XymlHXUqKiggVk3lF_fa-7">
          <mxGeometry relative="1" as="geometry" />
        </mxCell>
        <mxCell id="lmVjnB-UKOoOZH7RbxXl-7" value="StaffDAL" style="html=1;whiteSpace=wrap;" parent="1" vertex="1">
          <mxGeometry x="660" y="105" width="90" height="30" as="geometry" />
        </mxCell>
        <mxCell id="lmVjnB-UKOoOZH7RbxXl-18" style="edgeStyle=orthogonalEdgeStyle;rounded=0;orthogonalLoop=1;jettySize=auto;html=1;exitX=0.5;exitY=1;exitDx=0;exitDy=0;exitPerimeter=0;entryX=0.5;entryY=0.513;entryDx=0;entryDy=0;entryPerimeter=0;endArrow=none;endFill=0;dashed=1;" parent="1" source="lmVjnB-UKOoOZH7RbxXl-8" target="lmVjnB-UKOoOZH7RbxXl-17" edge="1">
          <mxGeometry relative="1" as="geometry" />
        </mxCell>
        <mxCell id="lmVjnB-UKOoOZH7RbxXl-8" value="DB" style="strokeWidth=2;html=1;shape=mxgraph.flowchart.database;whiteSpace=wrap;" parent="1" vertex="1">
          <mxGeometry x="810" y="100" width="60" height="60" as="geometry" />
        </mxCell>
        <mxCell id="lmVjnB-UKOoOZH7RbxXl-10" value="" style="shape=umlDestroy;whiteSpace=wrap;html=1;strokeWidth=3;targetShapes=umlLifeline;" parent="1" vertex="1">
          <mxGeometry x="120" y="790" width="30" height="30" as="geometry" />
        </mxCell>
        <mxCell id="lmVjnB-UKOoOZH7RbxXl-14" value="" style="html=1;points=[];perimeter=orthogonalPerimeter;outlineConnect=0;targetShapes=umlLifeline;portConstraint=eastwest;newEdgeStyle={&quot;edgeStyle&quot;:&quot;elbowEdgeStyle&quot;,&quot;elbow&quot;:&quot;vertical&quot;,&quot;curved&quot;:0,&quot;rounded&quot;:0};" parent="1" vertex="1">
          <mxGeometry x="280" y="200" width="10" height="580" as="geometry" />
        </mxCell>
        <mxCell id="lmVjnB-UKOoOZH7RbxXl-15" value="Input&amp;nbsp;UsernamePassword" style="html=1;verticalAlign=bottom;endArrow=block;edgeStyle=elbowEdgeStyle;elbow=vertical;curved=0;rounded=0;" parent="1" target="lmVjnB-UKOoOZH7RbxXl-14" edge="1">
          <mxGeometry width="80" relative="1" as="geometry">
            <mxPoint x="140" y="220" as="sourcePoint" />
            <mxPoint x="250" y="220" as="targetPoint" />
          </mxGeometry>
        </mxCell>
        <mxCell id="XymlHXUqKiggVk3lF_fa-22" style="edgeStyle=elbowEdgeStyle;rounded=0;orthogonalLoop=1;jettySize=auto;html=1;elbow=vertical;curved=0;entryX=0.341;entryY=-0.008;entryDx=0;entryDy=0;entryPerimeter=0;endArrow=none;endFill=0;dashed=1;" edge="1" parent="1" source="lmVjnB-UKOoOZH7RbxXl-16" target="XymlHXUqKiggVk3lF_fa-21">
          <mxGeometry relative="1" as="geometry" />
        </mxCell>
        <mxCell id="lmVjnB-UKOoOZH7RbxXl-16" value="" style="html=1;points=[];perimeter=orthogonalPerimeter;outlineConnect=0;targetShapes=umlLifeline;portConstraint=eastwest;newEdgeStyle={&quot;edgeStyle&quot;:&quot;elbowEdgeStyle&quot;,&quot;elbow&quot;:&quot;vertical&quot;,&quot;curved&quot;:0,&quot;rounded&quot;:0};fillColor=#999999;" parent="1" vertex="1">
          <mxGeometry x="400" y="210" width="10" height="220" as="geometry" />
        </mxCell>
        <mxCell id="lmVjnB-UKOoOZH7RbxXl-17" value="" style="shape=umlDestroy;whiteSpace=wrap;html=1;strokeWidth=3;targetShapes=umlLifeline;" parent="1" vertex="1">
          <mxGeometry x="825" y="790" width="30" height="30" as="geometry" />
        </mxCell>
        <mxCell id="lmVjnB-UKOoOZH7RbxXl-19" value="" style="html=1;verticalAlign=bottom;endArrow=block;edgeStyle=elbowEdgeStyle;elbow=vertical;curved=0;rounded=0;" parent="1" source="lmVjnB-UKOoOZH7RbxXl-14" target="lmVjnB-UKOoOZH7RbxXl-16" edge="1">
          <mxGeometry width="80" relative="1" as="geometry">
            <mxPoint x="310" y="240" as="sourcePoint" />
            <mxPoint x="390" y="240" as="targetPoint" />
            <Array as="points">
              <mxPoint x="350" y="240" />
            </Array>
          </mxGeometry>
        </mxCell>
        <mxCell id="lmVjnB-UKOoOZH7RbxXl-25" value="" style="endArrow=classic;html=1;rounded=0;" parent="1" source="lmVjnB-UKOoOZH7RbxXl-16" target="lmVjnB-UKOoOZH7RbxXl-16" edge="1">
          <mxGeometry relative="1" as="geometry">
            <mxPoint x="380" y="320" as="sourcePoint" />
            <mxPoint x="480" y="320" as="targetPoint" />
            <Array as="points">
              <mxPoint x="440" y="260" />
              <mxPoint x="440" y="320" />
              <mxPoint x="430" y="320" />
            </Array>
          </mxGeometry>
        </mxCell>
        <mxCell id="lmVjnB-UKOoOZH7RbxXl-26" value="CheckUsername()&lt;br&gt;CheckPassword()" style="edgeLabel;resizable=0;html=1;align=center;verticalAlign=middle;" parent="lmVjnB-UKOoOZH7RbxXl-25" connectable="0" vertex="1">
          <mxGeometry relative="1" as="geometry">
            <mxPoint x="20" as="offset" />
          </mxGeometry>
        </mxCell>
        <mxCell id="lmVjnB-UKOoOZH7RbxXl-27" value="" style="endArrow=none;startArrow=block;endFill=0;startFill=1;html=1;rounded=0;" parent="1" source="lmVjnB-UKOoOZH7RbxXl-14" target="lmVjnB-UKOoOZH7RbxXl-16" edge="1">
          <mxGeometry width="160" relative="1" as="geometry">
            <mxPoint x="290" y="310" as="sourcePoint" />
            <mxPoint x="450" y="310" as="targetPoint" />
            <Array as="points">
              <mxPoint x="350" y="330" />
            </Array>
          </mxGeometry>
        </mxCell>
        <mxCell id="XymlHXUqKiggVk3lF_fa-1" value="" style="endArrow=classic;html=1;rounded=0;" edge="1" parent="1">
          <mxGeometry relative="1" as="geometry">
            <mxPoint x="290" y="350" as="sourcePoint" />
            <mxPoint x="290" y="410" as="targetPoint" />
            <Array as="points">
              <mxPoint x="320" y="350" />
              <mxPoint x="320" y="410" />
              <mxPoint x="310" y="410" />
            </Array>
          </mxGeometry>
        </mxCell>
        <mxCell id="XymlHXUqKiggVk3lF_fa-2" value="error msg: Invald&lt;br&gt;UsernamePassword" style="edgeLabel;resizable=0;html=1;align=center;verticalAlign=middle;" connectable="0" vertex="1" parent="XymlHXUqKiggVk3lF_fa-1">
          <mxGeometry relative="1" as="geometry">
            <mxPoint x="20" as="offset" />
          </mxGeometry>
        </mxCell>
        <mxCell id="XymlHXUqKiggVk3lF_fa-3" value="[Invald&lt;span style=&quot;font-size: 11px; background-color: rgb(255, 255, 255);&quot;&gt;UsernamePassword&lt;/span&gt;]" style="text;html=1;strokeColor=none;fillColor=none;align=center;verticalAlign=middle;whiteSpace=wrap;rounded=0;" vertex="1" parent="1">
          <mxGeometry x="179" y="290" width="60" height="30" as="geometry" />
        </mxCell>
        <mxCell id="XymlHXUqKiggVk3lF_fa-4" value="" style="html=1;points=[];perimeter=orthogonalPerimeter;outlineConnect=0;targetShapes=umlLifeline;portConstraint=eastwest;newEdgeStyle={&quot;edgeStyle&quot;:&quot;elbowEdgeStyle&quot;,&quot;elbow&quot;:&quot;vertical&quot;,&quot;curved&quot;:0,&quot;rounded&quot;:0};" vertex="1" parent="1">
          <mxGeometry x="560" y="465" width="10" height="95" as="geometry" />
        </mxCell>
        <mxCell id="XymlHXUqKiggVk3lF_fa-6" value="NewStaffBL()" style="html=1;verticalAlign=bottom;endArrow=block;edgeStyle=elbowEdgeStyle;elbow=vertical;curved=0;rounded=0;exitX=1;exitY=0.443;exitDx=0;exitDy=0;exitPerimeter=0;" edge="1" parent="1">
          <mxGeometry width="80" relative="1" as="geometry">
            <mxPoint x="290" y="470.23" as="sourcePoint" />
            <mxPoint x="560" y="470" as="targetPoint" />
          </mxGeometry>
        </mxCell>
        <mxCell id="XymlHXUqKiggVk3lF_fa-7" value="" style="html=1;points=[];perimeter=orthogonalPerimeter;outlineConnect=0;targetShapes=umlLifeline;portConstraint=eastwest;newEdgeStyle={&quot;edgeStyle&quot;:&quot;elbowEdgeStyle&quot;,&quot;elbow&quot;:&quot;vertical&quot;,&quot;curved&quot;:0,&quot;rounded&quot;:0};fillColor=#999999;" vertex="1" parent="1">
          <mxGeometry x="700" y="470" width="10" height="80" as="geometry" />
        </mxCell>
        <mxCell id="XymlHXUqKiggVk3lF_fa-8" value="Login()" style="html=1;verticalAlign=bottom;endArrow=block;edgeStyle=elbowEdgeStyle;elbow=horizontal;curved=0;rounded=0;entryX=0;entryY=0.143;entryDx=0;entryDy=0;entryPerimeter=0;" edge="1" parent="1" target="XymlHXUqKiggVk3lF_fa-7">
          <mxGeometry width="80" relative="1" as="geometry">
            <mxPoint x="570" y="480" as="sourcePoint" />
            <mxPoint x="640" y="480" as="targetPoint" />
          </mxGeometry>
        </mxCell>
        <mxCell id="XymlHXUqKiggVk3lF_fa-10" value="Login()" style="html=1;verticalAlign=bottom;endArrow=block;edgeStyle=elbowEdgeStyle;elbow=horizontal;curved=0;rounded=0;entryX=0;entryY=0.143;entryDx=0;entryDy=0;entryPerimeter=0;" edge="1" parent="1">
          <mxGeometry width="80" relative="1" as="geometry">
            <mxPoint x="710" y="490" as="sourcePoint" />
            <mxPoint x="840" y="490" as="targetPoint" />
          </mxGeometry>
        </mxCell>
        <mxCell id="XymlHXUqKiggVk3lF_fa-11" value="" style="html=1;verticalAlign=bottom;endArrow=none;edgeStyle=elbowEdgeStyle;elbow=vertical;curved=0;rounded=0;startArrow=block;startFill=1;endFill=0;" edge="1" parent="1" source="XymlHXUqKiggVk3lF_fa-7">
          <mxGeometry width="80" relative="1" as="geometry">
            <mxPoint x="720" y="530" as="sourcePoint" />
            <mxPoint x="840" y="530" as="targetPoint" />
          </mxGeometry>
        </mxCell>
        <mxCell id="XymlHXUqKiggVk3lF_fa-12" value="" style="html=1;verticalAlign=bottom;endArrow=none;edgeStyle=elbowEdgeStyle;elbow=vertical;curved=0;rounded=0;startArrow=block;startFill=1;endFill=0;" edge="1" parent="1">
          <mxGeometry width="80" relative="1" as="geometry">
            <mxPoint x="570" y="539" as="sourcePoint" />
            <mxPoint x="700" y="539" as="targetPoint" />
          </mxGeometry>
        </mxCell>
        <mxCell id="XymlHXUqKiggVk3lF_fa-13" value="" style="html=1;verticalAlign=bottom;endArrow=none;edgeStyle=elbowEdgeStyle;elbow=vertical;curved=0;rounded=0;exitX=1;exitY=0.443;exitDx=0;exitDy=0;exitPerimeter=0;endFill=0;startArrow=block;startFill=1;" edge="1" parent="1">
          <mxGeometry width="80" relative="1" as="geometry">
            <mxPoint x="290" y="550" as="sourcePoint" />
            <mxPoint x="560" y="550" as="targetPoint" />
          </mxGeometry>
        </mxCell>
        <mxCell id="XymlHXUqKiggVk3lF_fa-14" value="" style="endArrow=classic;html=1;rounded=0;" edge="1" parent="1">
          <mxGeometry relative="1" as="geometry">
            <mxPoint x="290" y="580" as="sourcePoint" />
            <mxPoint x="290" y="640" as="targetPoint" />
            <Array as="points">
              <mxPoint x="320" y="580" />
              <mxPoint x="320" y="640" />
              <mxPoint x="310" y="640" />
            </Array>
          </mxGeometry>
        </mxCell>
        <mxCell id="XymlHXUqKiggVk3lF_fa-15" value="error msg: can&#39;tLogin" style="edgeLabel;resizable=0;html=1;align=center;verticalAlign=middle;" connectable="0" vertex="1" parent="XymlHXUqKiggVk3lF_fa-14">
          <mxGeometry relative="1" as="geometry">
            <mxPoint x="30" as="offset" />
          </mxGeometry>
        </mxCell>
        <mxCell id="XymlHXUqKiggVk3lF_fa-16" value="" style="endArrow=classic;html=1;rounded=0;" edge="1" parent="1">
          <mxGeometry relative="1" as="geometry">
            <mxPoint x="290" y="660" as="sourcePoint" />
            <mxPoint x="290" y="720" as="targetPoint" />
            <Array as="points">
              <mxPoint x="320" y="660" />
              <mxPoint x="320" y="720" />
              <mxPoint x="310" y="720" />
            </Array>
          </mxGeometry>
        </mxCell>
        <mxCell id="XymlHXUqKiggVk3lF_fa-17" value="Show menu Staff" style="edgeLabel;resizable=0;html=1;align=center;verticalAlign=middle;" connectable="0" vertex="1" parent="XymlHXUqKiggVk3lF_fa-16">
          <mxGeometry relative="1" as="geometry">
            <mxPoint x="20" as="offset" />
          </mxGeometry>
        </mxCell>
        <mxCell id="XymlHXUqKiggVk3lF_fa-20" value="Loop" style="shape=umlFrame;whiteSpace=wrap;html=1;pointerEvents=0;" vertex="1" parent="1">
          <mxGeometry x="110" y="170" width="410" height="250" as="geometry" />
        </mxCell>
        <mxCell id="XymlHXUqKiggVk3lF_fa-21" value="alt" style="shape=umlFrame;whiteSpace=wrap;html=1;pointerEvents=0;" vertex="1" parent="1">
          <mxGeometry x="170" y="510" width="690" height="270" as="geometry" />
        </mxCell>
        <mxCell id="XymlHXUqKiggVk3lF_fa-24" style="edgeStyle=elbowEdgeStyle;rounded=0;orthogonalLoop=1;jettySize=auto;html=1;elbow=vertical;curved=0;endArrow=none;endFill=0;dashed=1;" edge="1" parent="1">
          <mxGeometry relative="1" as="geometry">
            <mxPoint x="284.5" y="780" as="sourcePoint" />
            <mxPoint x="285" y="810" as="targetPoint" />
          </mxGeometry>
        </mxCell>
        <mxCell id="XymlHXUqKiggVk3lF_fa-25" style="edgeStyle=elbowEdgeStyle;rounded=0;orthogonalLoop=1;jettySize=auto;html=1;elbow=vertical;curved=0;endArrow=none;endFill=0;dashed=1;" edge="1" parent="1">
          <mxGeometry relative="1" as="geometry">
            <mxPoint x="564.5" y="560" as="sourcePoint" />
            <mxPoint x="565" y="810" as="targetPoint" />
          </mxGeometry>
        </mxCell>
        <mxCell id="XymlHXUqKiggVk3lF_fa-26" style="edgeStyle=elbowEdgeStyle;rounded=0;orthogonalLoop=1;jettySize=auto;html=1;elbow=vertical;curved=0;endArrow=none;endFill=0;dashed=1;" edge="1" parent="1">
          <mxGeometry relative="1" as="geometry">
            <mxPoint x="704.5" y="550" as="sourcePoint" />
            <mxPoint x="705" y="810" as="targetPoint" />
          </mxGeometry>
        </mxCell>
        <mxCell id="XymlHXUqKiggVk3lF_fa-27" value="staff=null" style="text;html=1;strokeColor=none;fillColor=none;align=center;verticalAlign=middle;whiteSpace=wrap;rounded=0;" vertex="1" parent="1">
          <mxGeometry x="190" y="590" width="60" height="30" as="geometry" />
        </mxCell>
        <mxCell id="XymlHXUqKiggVk3lF_fa-28" value="staff" style="text;html=1;strokeColor=none;fillColor=none;align=center;verticalAlign=middle;whiteSpace=wrap;rounded=0;" vertex="1" parent="1">
          <mxGeometry x="190" y="680" width="60" height="30" as="geometry" />
        </mxCell>
      </root>
    </mxGraphModel>
  </diagram>
</mxfile>
